PathFileType	4	(X/Y/Z)	1_2_rein_80_p1_0-322.trc
DataRate	CameraRate	NumFrames	NumMarkers	Units	OrigDataRate	OrigDataStartFrame	OrigNumFrames
59.0	59.0	5	27	m	59.0	40	323
Frame#	Time	RHip			RKnee			RAnkle			RBigToe			RSmallToe			RHeel			LHip			LKnee			LAnkle			LBigToe			LSmallToe			LHeel			Neck			Head			Nose			RShoulder			RElbow			RWrist			RThumb			RIndex			RPinky			LShoulder			LElbow			LWrist			LThumb			LIndex			LPinky			
		X1	Y1	Z1	X2	Y2	Z2	X3	Y3	Z3	X4	Y4	Z4	X5	Y5	Z5	X6	Y6	Z6	X7	Y7	Z7	X8	Y8	Z8	X9	Y9	Z9	X10	Y10	Z10	X11	Y11	Z11	X12	Y12	Z12	X13	Y13	Z13	X14	Y14	Z14	X15	Y15	Z15	X16	Y16	Z16	X17	Y17	Z17	X18	Y18	Z18	X19	Y19	Z19	X20	Y20	Z20	X21	Y21	Z21	X22	Y22	Z22	X23	Y23	Z23	X24	Y24	Z24	X25	Y25	Z25	X26	Y26	Z26	X27	Y27	Z27	
40	0.6779661016949152	0.37213105460458706	0.2489629804928472	1.0838680426673368	0.3451990548614125	0.35828739133670034	1.5133615034078847	0.3346600180868693	0.4263138314214951	1.9714291416976006	0.34150800627220285	0.1982057625158206	2.00188752515275	0.3978290305671387	0.2620655453285408	2.0195276755865454	0.32879218346073885	0.46552241433743735	2.025296610152495	0.12843149160167552	0.2777648136752096	1.1029930558593346	0.1644897246523272	0.3227228760604747	1.5074309337657181	0.18128811616042487	0.37567265756169477	1.9360528877864127	0.1727585915695848	0.21702156235720282	2.004865734932999	0.12505856113404848	0.22303197939729025	1.9788953149701158	0.19719467101428392	0.4428760610585913	1.996959617138128	0.24553482057310572	0.19275602117293406	0.46840561182858975	0.23584823040491612	0.082956400298539	0.22201864564347812	0.21702545520203362	0.030116627066799084	0.3754167826516284	0.43935682891963634	0.1836494310680999	0.547991578099669	0.47959354793718784	0.2027095777113423	0.8754639474100646	0.3511012702370497	0.12738858550035148	1.086957599494617	0.2389684437945267	0.07904771497576234	1.138889739300083	0.23683272281606113	0.09490666663305214	1.1632579005656392	0.2600909999509436	0.15513106610486962	1.1855467416429883	0.08521921440900125	0.22965585272300218	0.5595043064122481	0.03480340300712001	0.2152033788792064	0.8435052815508148	0.14641441448276848	0.11032635231796255	1.0513174062406698	0.24049405444045358	0.05240104621794549	1.0929185507745418	0.24289729692637171	0.06640267595774285	1.1340468805235244	0.2345413260049862	0.09019239648566049	1.1509389818554026
41	0.6949152542372882	0.37168091191415037	0.2471062444193678	1.0801761831116943	0.3494120135128542	0.3449646118549129	1.503629519890861	0.33459566715335964	0.42615122592303156	1.971381838052899	0.3453380866149367	0.2027776503767963	2.000047587196696	0.39785190789428143	0.26195526047558926	2.019450902782543	0.32411794171218267	0.4544525963934038	2.015631919330722	0.1275039796232853	0.2787940667276231	1.091941408400603	0.16443487272107446	0.32291109873919055	1.5065956963376659	0.18135166486524323	0.37550277212008176	1.9358507603479644	0.17268540025826612	0.21698106560464267	2.0049183637005337	0.12536007662884138	0.22424679000069445	1.975722535993424	0.2012136621994633	0.4294927265164912	1.9838000257482609	0.24926309130391244	0.1808537139555306	0.4675366542369014	0.2358312287630973	0.082850035099248	0.2220743573525624	0.21701827782757863	0.03002717647536183	0.37539706933190814	0.43933502316137574	0.18362516083376257	0.5479445865415518	0.48246368787990745	0.19080160255510237	0.869282406190484	0.3594458063530859	0.12746154912405305	1.085323237498419	0.23890634768061558	0.08403083902264667	1.1376122329959928	0.24169044462082057	0.1105264646156284	1.1785927455141199	0.2697917406715254	0.17540455000573751	1.1961720849882724	0.08519446548237225	0.22966326613053034	0.5594955810896497	0.030817733490017072	0.21328662562763812	0.8399351675553589	0.1435757779627961	0.09921291188496419	1.0491965291723293	0.24031475003150113	0.05299928441997716	1.0896702120683353	0.23988566236247255	0.05539731578916949	1.1311758964047547	0.234243188540899	0.0893952966484218	1.1507512019351016
42	0.711864406779661	0.3633685937601497	0.2597235668331828	1.0840982555411782	0.3498428506346855	0.3428858401915965	1.5072127359689607	0.3345580103863357	0.4260077788693331	1.9712985355029464	0.3417371921582923	0.19150826230662726	1.9946328330152774	0.3944190749461477	0.2510990324408226	2.014213081714253	0.3239913855273479	0.45415532033384787	2.0154938107764484	0.12754116309429545	0.2785508491461794	1.0920914611119386	0.16506626862512952	0.3063103546215927	1.4999472502282591	0.18061051926354024	0.3774595091293166	1.9319711904276609	0.1706498467770224	0.20685210974068535	2.004090192307773	0.12504854557758385	0.22303907052276062	1.9789946307645616	0.1965542167211642	0.4452427627529497	1.9924922121155522	0.24907613766116446	0.17934541108247964	0.46399441130186453	0.23577781298560893	0.08152435229223758	0.21897014355410963	0.21698571877929043	0.029993079374793938	0.37539869683716137	0.4393060817187943	0.18358144395764484	0.547943649970722	0.4897335328650098	0.19932767919904906	0.8624858032775586	0.3640752955147755	0.1288514933731409	1.0893958340544523	0.23889775904762756	0.0840539596361353	1.1380030373520154	0.24152577999310876	0.11076195527047644	1.1783294560123954	0.26951593700709797	0.17208300662830692	1.1945468429016912	0.08520052110581353	0.22963197553445075	0.5594912982568393	0.030767636745749335	0.21339266067138743	0.8398642805836012	0.13912034532791995	0.11100590851658129	1.0525848259804251	0.2324194173746148	0.06282638143815618	1.0964972081894004	0.2352305459758617	0.06756496570856997	1.1357567498173133	0.22363406157040855	0.10573969074562843	1.1595733797937537
43	0.7288135593220338	0.3636771054005835	0.23428145905954384	1.0780607399049733	0.3499223947436841	0.34142719325501414	1.5108255395676242	0.33460848386379693	0.4262635729421887	1.9713446652394364	0.345300512507504	0.2028177170150878	1.999793496619377	0.39807301251832844	0.26273112713655006	2.019842005651479	0.32407290900945296	0.45453748364388835	2.015645598631751	0.13225153047142085	0.26537909838220397	1.088630737536732	0.1650004352077961	0.30618076214206474	1.5003715497996852	0.18064046696124209	0.3777272432181462	1.9322318183219047	0.1727680121351856	0.21722414497096093	2.004779532948982	0.1250311232320515	0.22313556324293402	1.9789873928057748	0.1965296216531161	0.4453098984218536	1.9926497261152007	0.24927420759248903	0.18087817934132672	0.4675324967864569	0.23296532013444976	0.07309353336190026	0.22295131421120062	0.21431629214589598	0.020407223451657568	0.3757999205314145	0.43934382287052637	0.18348654597675487	0.548038984437135	0.49685665819954283	0.20990648629165817	0.8518803131073325	0.37640936058137275	0.1537132621819063	1.0899649129441178	0.24351734483156098	0.08602555716443376	1.1356201014516136	0.24218687194802763	0.11141215594034347	1.1789750986158707	0.28650644185297974	0.1908604353867413	1.2027806170369346	0.08521222319388318	0.22965361618710342	0.5594921181594437	0.030673725468148214	0.2137218698842113	0.839779941456962	0.13856452044376072	0.11234283940786453	1.0495293974236009	0.23103768569287078	0.07760512023351498	1.0965575336614322	0.23522884844006353	0.06756332158421977	1.1355576351275547	0.22766523407088055	0.09313232997416641	1.1556141056579008
44	0.7457627118644068	0.36737489997549994	0.24936069766443192	1.0809826291188895	0.3499918901599898	0.34111399093376477	1.510753396890233	0.33458836716665363	0.42633815628518623	1.9713915199525558	0.34527131639559594	0.2028805130563495	1.9997802362552375	0.39791495480526	0.2626367892849743	2.0196514550358606	0.3240416493718517	0.454569646516194	2.015748347140123	0.1320221624856257	0.2670038285507889	1.0854548952996361	0.1600862808505987	0.3202298207777577	1.5061183429226062	0.18056316866565292	0.3774314668119336	1.9319664067878466	0.17011593917079257	0.20979438024912778	2.000361557549232	0.1249705791791022	0.22313312490909493	1.978821458152632	0.19655650981564488	0.4449875053837618	1.9924697841980683	0.24919372912267326	0.1808753121917258	0.467510213755659	0.23281307913363597	0.07377739972041075	0.2195845468744158	0.2169561139599314	0.029976616013896527	0.3754529889629306	0.4348618449161021	0.18400510832903874	0.5446868826841105	0.5058463339851644	0.2159623360826159	0.8523241566345577	0.38430360560987165	0.17455311954832056	1.094193093998668	0.2516080576108912	0.1011565630877703	1.1418344616375893	0.25507151863590716	0.13595564358633336	1.1943067548292958	0.2913225017744284	0.19220408777707337	1.2071872659774991	0.08522286199442877	0.22962294540711234	0.5594811630585313	0.030191356453062496	0.212336091912912	0.8360117882845298	0.13551648539911001	0.10160631047355194	1.0472683447963107	0.22739007539336437	0.07515816602055464	1.0991214044038575	0.2307899377816262	0.06676782363605283	1.136131211916278	0.21846818138818697	0.1019004193466332	1.1542575432426745
